<?xml version="1.0" encoding="utf-8"?>
<svg version="1.1" xmlns:xlink="http://www.w3.org/1999/xlink" width="37px" height="37px" xmlns="http://www.w3.org/2000/svg">
  <g transform="matrix(1 0 0 1 -239 0 )">
    <path d="M 257.5 0  C 267.86 0  276 8.14  276 18.5  C 276 28.86  267.86 37  257.5 37  C 247.14 37  239 28.86  239 18.5  C 239 8.14  247.14 0  257.5 0  Z " fill-rule="nonzero" fill="#ff0202" stroke="none" />
    <path d="M 257.5 0.5  C 267.58 0.5  275.5 8.42  275.5 18.5  C 275.5 28.58  267.58 36.5  257.5 36.5  C 247.42 36.5  239.5 28.58  239.5 18.5  C 239.5 8.42  247.42 0.5  257.5 0.5  Z " stroke-width="1" stroke="#797979" fill="none" />
  </g>
</svg>