<?xml version="1.0" encoding="utf-8"?>
<svg version="1.1" xmlns:xlink="http://www.w3.org/1999/xlink" width="37px" height="37px" xmlns="http://www.w3.org/2000/svg">
  <g transform="matrix(1 0 0 1 -60 0 )">
    <path d="M 78.5 0  C 88.86 0  97 8.14  97 18.5  C 97 28.86  88.86 37  78.5 37  C 68.14 37  60 28.86  60 18.5  C 60 8.14  68.14 0  78.5 0  Z " fill-rule="nonzero" fill="#000000" stroke="none" />
    <path d="M 78.5 0.5  C 88.58 0.5  96.5 8.42  96.5 18.5  C 96.5 28.58  88.58 36.5  78.5 36.5  C 68.42 36.5  60.5 28.58  60.5 18.5  C 60.5 8.42  68.42 0.5  78.5 0.5  Z " stroke-width="1" stroke="#797979" fill="none" />
  </g>
</svg>